PathFileType	4	(X/Y/Z)	TVC_4_BWA_6_walk_RCNL2025.trc
DataRate	CameraRate	NumFrames	NumMarkers	Units	OrigDataRate	OrigDataStartFrame	OrigNumFrames
100	100	7	27	mm	100	316	420
Frame#	Time	R_Shoulder			L_Shoulder			C7			J_Notch			R_Elbow			L_Elbow			R_Wrist			L_Wrist			R_Asis			L_Asis			R_Psis			L_Psis			Sacral			Thoracic			Sternum			R_Thigh_Lateral			R_Knee_Lateral			R_Shank_Lateral			R_Ankle_Lateral			R_Heel			R_Toe			L_Thigh_Lateral			L_Knee_Lateral			L_Shank_Lateral			L_Ankle_Lateral			L_Heel			L_Toe		
		X1	Y1	Z1	X2	Y2	Z2	X3	Y3	Z3	X4	Y4	Z4	X5	Y5	Z5	X6	Y6	Z6	X7	Y7	Z7	X8	Y8	Z8	X9	Y9	Z9	X10	Y10	Z10	X11	Y11	Z11	X12	Y12	Z12	X13	Y13	Z13	X14	Y14	Z14	X15	Y15	Z15	X16	Y16	Z16	X17	Y17	Z17	X18	Y18	Z18	X19	Y19	Z19	X20	Y20	Z20	X21	Y21	Z21	X22	Y22	Z22	X23	Y23	Z23	X24	Y24	Z24	X25	Y25	Z25	X26	Y26	Z26	X27	Y27	Z27
316	3.15000000	372.908905	1285.411743	395.789001	354.247833	1311.893311	14.745032	306.933838	1364.322510	225.010498	450.429413	1248.053345	190.991592	429.879364	978.061035	464.626465	213.488388	1022.987549	-54.797813	585.446289	811.751343	420.347458	220.481064	808.333282	-89.023350	380.720520	855.385437	362.873352	362.747559	848.817322	10.087365	232.242783	884.340637	242.250031	230.673599	879.484680	150.706299	231.458191	881.912659	196.478165	230.782806	1116.017700	210.687393	490.695526	1059.621460	182.231369	326.476471	507.433441	366.109558	283.897675	423.918518	311.240173	207.518326	266.072388	373.465363	110.734016	76.182198	272.082703	58.421978	85.731628	232.722443	230.482910	43.034580	235.393219	455.852448	497.102783	-1.026778	481.940887	423.664490	49.568882	508.766205	304.592377	6.632613	584.649536	62.403790	95.523109	548.934265	43.691540	148.482941	718.062439	86.687675	98.308044
317	3.16000000	381.422180	1284.606689	394.636780	363.844849	1310.922485	13.496321	315.775696	1363.309204	223.584595	459.730804	1247.478882	190.060928	439.036682	977.308105	463.298187	223.821716	1021.816833	-56.296417	596.512451	812.959106	417.845261	230.437920	807.191071	-90.549824	391.083282	854.191772	362.215302	374.026062	847.745300	9.582851	242.873795	883.347473	241.429916	241.412399	878.603088	149.802216	242.143097	880.975281	195.616066	240.758743	1114.671875	209.236710	500.852112	1059.172363	181.545486	336.012360	506.432831	365.698029	292.957886	423.081421	310.851746	213.076035	267.079102	373.524323	112.243484	79.093849	272.685791	60.267391	89.780952	233.338730	230.878357	43.118408	235.554993	468.039429	497.369049	-0.236117	493.486115	423.273163	50.332291	519.903503	303.766785	7.593418	589.654114	61.111778	96.851952	552.866394	43.050472	149.209503	723.576965	81.939377	101.703072
318	3.17000000	389.970490	1283.969849	393.384338	373.568146	1310.032837	12.135629	324.722107	1362.468872	222.015091	469.141815	1247.083618	189.041580	447.807098	976.630615	461.937347	234.404694	1020.643982	-57.862568	607.041168	814.134705	415.358170	241.000664	806.078918	-92.098400	401.713043	853.000793	361.489166	385.361908	846.940552	8.989183	253.614990	882.493530	240.749008	252.161285	877.982422	149.023087	252.888138	880.237976	194.886047	250.848404	1113.517090	207.754501	511.180847	1058.897095	180.778580	346.035980	505.456543	365.272125	302.655273	422.271973	310.467682	219.088104	268.340118	373.648682	114.102318	82.410309	273.419312	62.578766	94.361778	234.036514	231.321091	43.190308	235.698502	480.604218	498.051361	0.502132	504.982025	423.183594	51.055782	530.572205	303.094299	8.628699	593.508667	60.015114	98.049927	555.757812	42.816479	149.899765	728.001526	76.666290	104.552910
319	3.18000000	398.573914	1283.536743	392.049072	383.413544	1309.253662	10.683593	333.793640	1361.847046	220.329361	478.664795	1246.899536	187.944061	456.205780	976.049561	460.538116	245.236206	1019.499573	-59.470009	617.020355	815.263916	412.901520	252.166931	805.031464	-93.646000	412.584839	851.831665	360.691833	396.722778	846.495850	8.280640	264.414398	881.813293	240.221420	262.877686	877.664307	148.380875	263.646042	879.738800	194.301147	261.027588	1112.615723	206.264862	521.669250	1058.843018	179.937302	356.611725	504.511505	364.832367	313.102325	421.515747	310.096924	225.663452	269.920105	373.852722	116.432266	86.187477	274.305450	65.502251	99.566505	234.846436	231.813492	43.228466	235.819839	493.461853	499.165649	1.167676	516.375000	423.465210	51.698307	540.808838	302.705353	9.655772	596.522705	59.195759	99.052986	557.916626	43.007710	150.490463	731.580200	71.255356	106.834602
320	3.19000000	407.263214	1283.345337	390.653076	393.368530	1308.619629	9.166460	343.011963	1361.485229	218.561905	488.297699	1246.950562	186.780060	464.246979	975.594238	459.096130	256.322083	1018.417725	-61.094357	626.433716	816.333588	410.490204	263.917564	804.083008	-95.161793	423.652008	850.713623	359.819489	408.052185	846.503662	7.455775	275.215027	881.334839	239.854553	273.530365	877.669189	147.876617	274.372696	879.502014	193.865585	271.270996	1112.013794	204.798203	532.290344	1059.058960	179.027649	367.827423	503.595490	364.388855	324.436798	420.826996	309.762299	232.947601	271.874115	374.164215	119.384735	90.476196	275.362457	69.210709	105.493416	235.810715	232.368347	43.219856	235.921539	506.501740	500.682129	1.745858	527.647949	424.145020	52.226505	550.675537	302.692139	10.558535	598.931030	58.654236	99.811729	559.567322	43.546539	150.914444	734.483093	66.066963	108.596451
321	3.20000000	416.077667	1283.427246	389.221893	403.414612	1308.167480	7.614277	352.392700	1361.409302	216.752411	498.033844	1247.242432	185.562836	471.944733	975.296875	457.609406	267.671967	1017.434570	-62.715164	635.264923	817.330536	408.139557	276.228539	803.271057	-96.617470	434.845428	849.682922	358.867065	419.270630	847.022400	6.543662	285.960571	881.070251	239.638428	284.096893	877.991516	147.495880	285.028732	879.530884	193.567154	281.552979	1111.729980	203.386154	543.001404	1059.578857	178.054321	379.785675	502.695892	363.967224	336.805511	420.202484	309.505737	241.106842	274.239777	374.624786	123.122314	95.311714	276.612305	73.890343	112.228142	236.982193	233.018402	43.171959	236.017059	519.598511	502.520752	2.219713	538.783813	425.172058	52.621635	560.231018	303.064911	11.217319	600.891174	58.338173	100.313965	560.853943	44.306442	151.137375	736.826233	61.365597	109.933266
322	3.21000000	425.058105	1283.798950	387.779572	413.531219	1307.930420	6.058620	361.936981	1361.619385	214.942368	507.862000	1247.760742	184.307373	479.313751	975.184875	456.081329	279.292023	1016.583069	-64.317482	643.503326	818.238617	405.865875	289.074539	802.629120	-97.990887	446.079681	848.778015	357.829559	430.291718	848.049133	5.598141	296.600433	881.013489	239.539124	294.560181	878.603455	147.207840	295.580307	879.808472	193.373482	291.846558	1111.753784	202.054092	553.746887	1060.406860	177.021713	392.593536	501.790588	363.607758	350.337311	419.619476	309.386841	250.304916	277.031250	375.283508	127.802750	100.707703	278.090424	79.718132	119.816917	238.425476	233.828537	43.123451	236.134644	532.608398	504.565186	2.567376	549.705872	426.416229	52.878864	569.485352	303.741974	11.552197	602.509949	58.182014	100.588707	561.869507	45.164062	151.173447	738.704285	57.305294	110.948151
